<?xml version="1.0" encoding="iso-8859-1"?>
<!-- Generator: Adobe Illustrator 18.0.0, SVG Export Plug-In . SVG Version: 6.00 Build 0)  -->
<!DOCTYPE svg PUBLIC "-//W3C//DTD SVG 1.1//EN" "http://www.w3.org/Graphics/SVG/1.1/DTD/svg11.dtd">
<svg version="1.1" id="Capa_1" xmlns="http://www.w3.org/2000/svg" xmlns:xlink="http://www.w3.org/1999/xlink" x="0px" y="0px"
	 viewBox="0 0 254.498 254.498" style="enable-background:new 0 0 254.498 254.498;" xml:space="preserve">
<g>
	<path d="M189.917,98.443c-18.01-33.989-38.32-66.508-60.711-97.781c-0.62-0.866-1.762-0.897-2.377,0
		c-5.707,8.332-11.286,16.77-16.883,25.193c-0.104,0.08-0.161,0.178-0.202,0.302c-2.379,3.581-4.816,7.117-7.178,10.711
		c-0.478-0.002-0.956-0.01-1.434-0.012c-0.831-0.004-0.824,1.249,0,1.285c0.194,0.009,0.389,0.015,0.582,0.024
		c-2.661,4.056-5.357,8.089-7.984,12.168c-0.04,0.001-0.08,0.001-0.119,0.002c-0.479,0.011-0.602,0.514-0.407,0.821
		c-7.376,11.476-14.628,23.029-21.57,34.76c-0.391,0.028-0.783,0.049-1.174,0.077c-0.683,0.049-0.694,1.111,0,1.074
		c0.173-0.009,0.346-0.021,0.519-0.031c-1.768,2.998-3.538,5.995-5.27,9.013c-0.124,0.001-0.247-0.002-0.371-0.001
		c-0.933,0.007-1.201,1.187-0.572,1.692c-0.326,0.78,0.784,1.402,1.276,0.648c0.036-0.054,0.069-0.11,0.105-0.164
		c0.187,0.046,0.375,0.091,0.562,0.136c0.185,0.045,0.325-0.031,0.419-0.145c9.703,1.387,19.799,1.308,29.547,0.751
		c-10.04,48.366-14.623,98.57-19.984,147.61c-0.127,1.158,1.303,1.713,2.176,1.249c11.31-6.004,34.159-24.141,47.043-19.325
		c4.964,1.855,11.402,8.838,15.597,11.82c6.962,4.951,14.141,9.531,21.433,13.974c0.957,0.583,2.305-0.164,2.267-1.301
		c-1.683-51.141-5.021-102.135-9.563-153.098c10.602,1.544,22.159,2.175,32.744,0.778c0.392-0.052,0.665-0.244,0.853-0.489
		C189.864,99.924,190.327,99.217,189.917,98.443z M154.83,98.35c-0.057,0.002-0.089,0.049-0.14,0.064
		c-0.891-0.362-2.073,0.041-1.96,1.247c2.991,32.147,5.246,64.365,7.004,96.602c0.425,7.782,0.815,15.567,1.168,23.353
		c0.304,6.701,2.677,16.898,0.95,23.363c-2.418,9.05-7.188,2.76-13.584-1.581c-8.727-5.924-17.067-12.349-25.22-19.037
		c-0.53-0.435-1.156-0.559-1.777-0.229c-7.308,3.869-14.617,7.738-21.925,11.607c-1.576,0.834-14.618,9.626-16.446,8.702
		c-1.764-0.891-2.457-4.084-2.529-8.393c4.262,0.539,8.583,0.244,12.808-0.454c0.547-0.09,0.425-1.027-0.132-0.975
		c-4.227,0.398-8.441,0.407-12.674,0.525c0.008-3.043,0.299-6.583,0.741-10.263c9-0.484,18.005-0.986,26.968-1.948
		c0.732-0.079,0.768-1.205,0-1.172c-8.967,0.394-17.908,1.249-26.84,2.12c0.462-3.657,1.061-7.402,1.668-10.927
		c0.048,0.026,0.067,0.079,0.129,0.089c5.24,0.847,10.468,1.367,15.782,1.236c0.849-0.021,0.849-1.291,0-1.318
		c-5.223-0.164-10.437-0.428-15.622-1.1c-0.046-0.006-0.069,0.031-0.11,0.036c0.677-3.875,1.347-7.399,1.841-10.125
		c6.749,0.69,13.512,0.508,20.25-0.186c0.949-0.098,0.989-1.562,0-1.513c-6.663,0.328-13.306,0.252-19.97,0.124
		c0.186-1.07,0.332-1.971,0.415-2.627c0.291-2.311,0.607-4.62,0.913-6.93c3.283,0.53,6.658,0.76,9.97,0.94
		c0.726,0.04,0.687-1.021,0-1.107c-3.246-0.402-6.56-0.773-9.839-0.831c0.45-3.365,0.947-6.727,1.421-10.091
		c5.688,0.58,11.373,0.814,17.093,0.524c0.791-0.04,0.8-1.261,0-1.237c-5.658,0.17-11.298,0.055-16.937-0.391
		c0.518-3.668,1.059-7.335,1.592-11.003c5.508,0.227,11.003,0.661,16.504,1.02c0.613,0.04,0.767-0.989,0.147-1.087
		c-5.471-0.863-10.947-1.139-16.469-1.188c0.526-3.613,1.054-7.228,1.582-10.841c6.256,0.491,12.521,0.901,18.789,1.183
		c0.968,0.044,0.954-1.43,0-1.497c-6.192-0.436-12.397-0.746-18.601-0.977c0.409-2.805,0.81-5.612,1.213-8.418
		c14.339,0.542,28.584,1.756,42.848,3.375c0.867,0.098,1.077-1.396,0.208-1.534c-14.18-2.258-28.484-3.263-42.832-3.395
		c0.337-2.358,0.638-4.718,0.968-7.076c7.326,0.051,14.664,0.208,21.985-0.073c0.784-0.03,0.788-1.199,0-1.22
		c-7.273-0.193-14.558,0.045-21.833,0.184c0.398-2.858,0.761-5.718,1.144-8.577c0.113,0.114,0.245,0.217,0.436,0.242
		c5.753,0.743,11.57,0.976,17.358,0.58c0.951-0.065,0.974-1.499,0-1.497c-5.804,0.008-11.568-0.13-17.358-0.531
		c-0.13-0.009-0.195,0.061-0.288,0.1c0.333-2.496,0.642-4.994,0.962-7.492c3.825,0.243,7.646,0.484,11.478,0.609
		c0.789,0.026,0.78-1.175,0-1.22c-3.781-0.22-7.561-0.324-11.345-0.428c0.742-5.849,1.451-11.7,2.04-17.559
		c0.444-0.882,0.064-2.165-1.208-2.112c-10.037,0.421-20.005,0.029-30.022,0.041c1.975-3.042,3.916-6.107,5.875-9.16
		c7.507-0.404,15.01-0.821,22.512-1.32c0.799-0.053,0.809-1.3,0-1.253c-7.264,0.42-14.521,0.92-21.779,1.43
		c2.206-3.444,4.423-6.882,6.625-10.329c0.043,0.015,0.064,0.055,0.115,0.059c8.48,0.723,16.956,1.403,25.45,1.946
		c0.777,0.05,0.766-1.142,0-1.204c-8.32-0.677-16.643-1.219-24.975-1.721c2.234-3.497,4.484-6.983,6.721-10.479
		c7.814,0.437,15.636,0.745,23.459,0.935c0.987,0.024,0.981-1.486,0-1.53c-7.549-0.332-15.104-0.549-22.66-0.652
		c2.176-3.397,4.336-6.804,6.534-10.187c0.212-0.326,0.458-0.725,0.72-1.155c6.873,0.143,13.742,0.216,20.617,0.125
		c0.89-0.012,0.891-1.371,0-1.383c-6.646-0.09-13.285-0.023-19.928,0.107c1.701-2.88,4.129-7.218,6.914-12.035
		c6.84,0.304,13.692,0.597,20.535,0.546c0.938-0.007,0.925-1.396,0-1.448c-6.568-0.374-13.16-0.428-19.742-0.463
		c1.832-3.149,3.802-6.46,5.815-9.684c0.018,0.003,0.024,0.02,0.042,0.022c5.783,0.503,11.551,0.997,17.352,1.25
		c1.008,0.044,0.972-1.449,0-1.546c-5.486-0.545-10.974-0.871-16.476-1.181c6.218-9.805,12.716-18.413,16.798-18.452
		c8.804-0.084,26.222,35.248,30.799,42.605c9.858,15.845,19.19,32.01,28.137,48.385C176.419,97.608,165.399,97.939,154.83,98.35z"/>
	<path d="M109.812,106.242c-3.077-0.108-6.107-0.325-9.116-1.015c-0.743-0.17-1.057,0.943-0.316,1.145
		c3.083,0.843,6.231,1.352,9.432,1.156C110.633,107.477,110.644,106.271,109.812,106.242z"/>
	<path d="M131.798,15.314c-2.895-0.076-5.784-0.04-8.679-0.008c-0.963,0.011-0.965,1.487,0,1.497
		c2.895,0.032,5.784,0.068,8.679-0.008C132.751,16.77,132.752,15.339,131.798,15.314z"/>
</g>
<g>
</g>
<g>
</g>
<g>
</g>
<g>
</g>
<g>
</g>
<g>
</g>
<g>
</g>
<g>
</g>
<g>
</g>
<g>
</g>
<g>
</g>
<g>
</g>
<g>
</g>
<g>
</g>
<g>
</g>
</svg>
